<?xml version="1.0" encoding="utf-8"?>
<!-- Generator: Adobe Illustrator 25.4.1, SVG Export Plug-In . SVG Version: 6.00 Build 0)  -->
<svg version="1.1" id="Capa_1" xmlns="http://www.w3.org/2000/svg" xmlns:xlink="http://www.w3.org/1999/xlink" x="0px" y="0px"
	 viewBox="0 0 642.3 642.3" style="enable-background:new 0 0 642.3 642.3;" xml:space="preserve">
<style type="text/css">
	.st0{fill:none;}
	.st1{fill:#13123E;}
	.st2{fill:none;stroke:#00FF99;stroke-width:20;stroke-miterlimit:10;}
</style>
<g id="Capa_2_00000158711484655820473620000004894914780076658056_">
	<g id="Capa_3">
		<circle class="st0" cx="321.2" cy="321.2" r="320.7"/>
	</g>
	<g id="Capa_1-2">
		<path class="st1" d="M479.3,151.6H163c-33.7,0.1-61,27.4-61,61.1v217.6c0,33.7,27.3,61,61,61.1h316.3c33.7,0,61-27.4,61.1-61.1
			V212.7C540.3,179,513,151.7,479.3,151.6z M405,204.5L405,204.5z M510.8,481.6L365.7,336.9l-2.2,2.2c-11.5,11.6-27.2,18.1-43.5,18
			l0,0c-16.2,0.1-31.8-6.4-43.3-17.8L136.5,478.6l-7-7.1l0,0l-7.1-7.1l140-139.2L118.9,181.6l7.1-7.1l0,0l7.1-7.1L290.5,325
			c7.8,7.8,18.4,12.2,29.4,12.2l0,0c11,0,21.6-4.3,29.4-12.2l156.5-157l7.1,7.1l0,0l7.1,7L379.8,322.8l145.1,144.7L510.8,481.6z"/>
		<line class="st2" x1="294.8" y1="204.5" x2="419.3" y2="204.5"/>
	</g>
</g>
</svg>
