<?xml version="1.0" encoding="utf-8"?>
<!-- Generator: Adobe Illustrator 25.4.1, SVG Export Plug-In . SVG Version: 6.00 Build 0)  -->
<svg version="1.1" id="Capa_1" xmlns="http://www.w3.org/2000/svg" xmlns:xlink="http://www.w3.org/1999/xlink" x="0px" y="0px"
	 viewBox="0 0 642.3 642.3" style="enable-background:new 0 0 642.3 642.3;" xml:space="preserve">
<style type="text/css">
	.st0{fill:none;}
	.st1{fill:#13123E;}
	.st2{fill:#00FF99;}
</style>
<g id="Capa_2_00000143613712676987129390000011614402009517511060_">
	<g id="Capa_3">
		<circle class="st0" cx="321.2" cy="321.2" r="320.7"/>
	</g>
</g>
<g>
	<g>
		<path class="st1" d="M519.5,196.6H220.2c-11.5,0-20.8-9.3-20.8-20.8l0,0c0-11.5,9.3-20.8,20.8-20.8h299.3
			c11.5,0,20.8,9.3,20.8,20.8l0,0C540.3,187.3,531,196.6,519.5,196.6z"/>
		<path class="st1" d="M519.5,291.9H220.2c-11.5,0-20.8-9.3-20.8-20.8l0,0c0-11.5,9.3-20.8,20.8-20.8h299.3
			c11.5,0,20.8,9.3,20.8,20.8l0,0C540.3,282.5,531,291.9,519.5,291.9z"/>
		<path class="st1" d="M519.5,392H220.2c-11.5,0-20.8-9.3-20.8-20.8l0,0c0-11.5,9.3-20.8,20.8-20.8h299.3c11.5,0,20.8,9.3,20.8,20.8
			l0,0C540.3,382.6,531,392,519.5,392z"/>
		<path class="st1" d="M519.5,485.3H220.2c-11.5,0-20.8-9.3-20.8-20.8l0,0c0-11.5,9.3-20.8,20.8-20.8h299.3
			c11.5,0,20.8,9.3,20.8,20.8l0,0C540.3,475.9,531,485.3,519.5,485.3z"/>
	</g>
	<circle class="st2" cx="124.9" cy="177.9" r="22.9"/>
	<circle class="st2" cx="124.9" cy="273.1" r="22.9"/>
	<circle class="st2" cx="124.9" cy="373.2" r="22.9"/>
	<circle class="st2" cx="124.9" cy="464.4" r="22.9"/>
</g>
</svg>
