<?xml version="1.0" encoding="utf-8"?>
<!-- Generator: Adobe Illustrator 25.4.1, SVG Export Plug-In . SVG Version: 6.00 Build 0)  -->
<svg version="1.1" id="Capa_1" xmlns="http://www.w3.org/2000/svg" xmlns:xlink="http://www.w3.org/1999/xlink" x="0px" y="0px"
	 viewBox="0 0 642.3 642.3" style="enable-background:new 0 0 642.3 642.3;" xml:space="preserve">
<style type="text/css">
	.st0{fill:none;}
	.st1{fill:#13123E;}
	.st2{fill:none;stroke:#00FF99;stroke-width:22.83;stroke-miterlimit:10;}
	.st3{fill:none;stroke:#00FF99;stroke-width:23.61;stroke-miterlimit:10;}
</style>
<g id="Capa_2_00000067202062906502012820000011566578689192751018_">
	<g id="Capa_3">
		<circle class="st0" cx="321.2" cy="321.2" r="320.7"/>
	</g>
	<g id="Capa_1-2">
		<path class="st1" d="M490.6,255.3c0.1-95.7-77.4-173.2-173.1-173.3s-173.2,77.4-173.3,173.1c0,45.1,17.5,88.4,48.9,120.7
			c23.8,24.5,44,54.3,44,88.5v25.5c0.5,44.4,36.9,79.9,81.2,79.4c43.7-0.5,78.9-35.8,79.4-79.4v-25.5c0-34.1,20.2-64,44-88.5
			C473.2,343.6,490.7,300.3,490.6,255.3z"/>
		<path class="st2" d="M396.3,181.6c-21.8-21.8-51.3-34-82.2-34"/>
		<line class="st3" x1="237.1" y1="451.9" x2="397.8" y2="451.9"/>
		<line class="st3" x1="237.1" y1="504.2" x2="397.8" y2="504.2"/>
	</g>
</g>
</svg>
