<?xml version="1.0" encoding="utf-8"?>
<!-- Generator: Adobe Illustrator 25.4.1, SVG Export Plug-In . SVG Version: 6.00 Build 0)  -->
<svg version="1.1" id="Capa_1" xmlns="http://www.w3.org/2000/svg" xmlns:xlink="http://www.w3.org/1999/xlink" x="0px" y="0px"
	 viewBox="0 0 642.3 642.3" style="enable-background:new 0 0 642.3 642.3;" xml:space="preserve">
<style type="text/css">
	.st0{fill:none;}
	.st1{fill:#003366;}
	.st2{fill:#F9F8F6;}
	.st3{fill:#E6E5E5;}
	.st4{fill:#FFFFFF;}
	.st5{fill:#FBDAB9;}
	.st6{fill:#FACA9A;}
	.st7{fill:#E5A96E;}
	.st8{fill:#FACB9A;}
	.st9{fill:#FAE3C0;}
	.st10{fill:#B3A48F;}
	.st11{fill:#2C252B;}
	.st12{fill:#766650;}
	.st13{fill:#FBD2A5;}
	.st14{fill:#FCD4A1;}
	.st15{fill:#272929;}
	.st16{fill:#786651;}
	.st17{fill:#27292A;}
	.st18{fill:#2B2524;}
	.st19{fill:#B4A48E;}
	.st20{fill:#282929;}
	.st21{fill:#989899;}
	.st22{fill:#1D1D1B;}
	.st23{fill:#F4DAB7;}
	.st24{fill:#FFE6BD;}
</style>
<g id="Capa_2_00000121968646749547750410000004335467174617916304_">
	<g id="Capa_3">
		<circle class="st0" cx="321.2" cy="321.2" r="320.7"/>
	</g>
	<g id="Capa_2-2">
		<g id="Capa_2-3">
			<g id="Capa_1-2">
				<path class="st1" d="M103.1,555.1c3.6-17.3,7.2-34.7,10.7-52c1.7-8.2,2.7-16.7,5.8-24.5c7.2-17.8,20.3-28.8,39.3-32.1
					c12.5-2.2,25.1-0.3,37.7-1c1-0.9,2.3-1.3,3.7-1.2c13.7,0,27.5-0.5,41.2,0.3c2.6,0.6,3.2,2.8,4.1,4.8c10,22.6,19.5,45.3,29.3,68
					c8.5,20.2,17.2,40.3,25.9,60.4c6,13.9,11.8,27.8,17.8,41.7c0.7,1.6,1.1,3.4,2.2,4.8c1.7-0.3,1.7-1.7,2.1-2.7
					c12.6-30.3,26-60.3,38.6-90.7c1.9-4.5,4.2-8.8,5.8-13.4c9.8-22.7,19.4-45.4,29.3-68c0.8-1.7,1.3-3.7,3.3-4.5s4.4-0.5,6.6-0.5
					h65.8c28,0,48.8,16.6,54.5,44.1c4.3,20.8,8.4,41.5,12.4,62.4c0.3,1.5,0.6,2.9-0.2,4.3c-7,7.7-15.2,14-23.4,20.3
					c-13.3,10.4-27.5,19.6-42.4,27.4c-2-2.5-1.9-5.6-2.1-8.5c-1.6-15.5-3.2-31-5.1-46.4c-0.5-4.4-0.4-8.9-0.9-13.3
					c-0.1-0.9,0.4-2-0.3-2.5c0.5,3.2,0.8,6.5,0.7,9.8c0.3,20.5-0.2,40.9,0.3,61.4c0,1.2-0.2,2.4-0.5,3.5
					c-25.3,13.4-52.2,22.3-80.1,28.1c-25.5,5.3-51.7,7.4-77.7,6.2c-45.3-1.9-89.6-13.4-130.1-33.7c-0.2-0.2-0.5-0.4-0.7-0.6
					c-0.9-3-0.3-6.2-0.3-9.2v-52.8c0-4,0.6-7.9,0.6-10.4c-1.3,20.7-4.2,42.7-6.8,64.8c-0.1,1.3-0.2,2.7-1.4,3.6
					c-21.2-11.1-40.5-24.9-58.5-40.5c-2.1-1.8-4.3-3.6-6.4-5.4C103.4,556.5,102.8,556,103.1,555.1z"/>
				<path class="st2" d="M89,541.7l7.9,8.1c-4.4,2.8-7,2.5-6.8-3.6C90.2,544.8,86.4,544,89,541.7z"/>
				<path class="st2" d="M103.1,555.1c0.3,0.6,0.6,1.2,0.9,1.8c-0.9,0.5,0.3,1.6-0.3,1.9c-0.8,0.5-1.3-0.5-1.7-1
					c-0.6-0.9-1.2-1.7-2.4-0.9l0,0c-1.1-2.3-3.8-3.9-2.7-7.1L103.1,555.1z"/>
				<path class="st2" d="M99.6,556.9c0.3,0.8,0.8,1.5-0.2,2.2c-0.4,0.2-1,0.4-1-0.2C98.4,558.1,98.9,557.3,99.6,556.9L99.6,556.9z"
					/>
				<path d="M415.3,165.5c5.7,9.1,11.5,18.2,15.5,28.4c5.1,13,6.8,26.6,8.7,40.2c4.4,32,10,63.7,22.1,93.9
					c8.9,22.1,20.8,42.2,40.2,57c2.4,1.9,1.4,2.9-0.2,4.4c-16.8,17-36.5,29.6-58.1,39.4c-14.4,6.7-29.5,11.5-45.1,14.4
					c-0.6,0.2-1.1,0.4-1.6,0.7c-0.7,0.6-1.7,0.8-2.5,0.3c-6.9-3.5-14.2-6.2-20.6-10.8c-0.5-0.6-0.9-1.3-1.1-2
					c-0.4-9.1-0.6-18.2-0.1-27.3c0.4-2.3,2.1-3.5,3.7-4.7c13.3-10.7,23.4-23.8,29.4-39.9c3.1-7.7,4.8-15.9,5.1-24.2
					c0-2.4,0.5-4.7,1.5-6.9c0.5-0.8,1.2-1.3,2.1-1.5c5.3-1.3,8.4-5,10.4-9.7c0.2-0.4,0.5-0.8,0.7-1.2c0.5-9,0.5-18,0-27
					c-0.2-0.4-0.4-0.8-0.7-1.2c-0.2-0.4-0.4-0.8-0.6-1.2c-1.4-4.3-3.9-7.5-8.3-9.1c-1.4-0.5-2.7-1.2-3.2-2.8
					c-0.7-9.4,0-18.9-0.4-28.3c-0.4-1.2-0.2-2.9-2.4-2.3c-20.4,7.3-42.4,8.5-63.5,3.5c-18.7-4.4-35.2-13.2-48.2-27.6
					c-2.7-3-3.2-3.1-6,0.6c-10.2,13.4-23.9,21.9-39.8,27.1c-3.2,1.1-6.6,1.6-9.9,2.4c-3.7,0.2-7.4,0.7-11.1,1.3
					c-0.4,0.1-0.8,0.4-1.1,0.7c-1,5.7-0.2,11.4-0.4,17c-0.1,1.9,0.1,3.8-0.3,5.7c-0.5,1.6-1.8,2.3-3.2,2.8c-4.4,1.5-6.9,4.8-8.3,9
					c-0.2,0.4-0.3,0.8-0.6,1.2c-0.2,0.4-0.5,0.8-0.7,1.2c-0.5,9-0.5,18,0.1,27l0.7,1.1c2,4.6,4.9,8.2,10.1,9.6
					c2.5,0.7,2.9,3,3.5,5.2c0.5,15.5,5.1,30.5,13.4,43.6c5.6,9.1,12.9,16.5,20.9,23.4c1.6,1.3,3.5,2.3,4.1,4.5c0.4,2,0.4,4-0.1,6
					c-1.2,7.3-0.1,14.6-0.6,21.9c0,0.5-0.2,1-0.3,1.4c-0.4,1-1.1,1.7-2.1,2.2c-7,3.3-13.4,7.8-21,9.7c-30.2-5.6-58.8-17.9-83.7-36
					c-2.4-1.5-4.5-3.4-6.2-5.6c-5.3-4.5-10.5-9.1-15.4-14.1c-1.4-1.4-1.9-2.3,0-3.8c22.8-17.5,35.4-41.7,44.5-68.1
					c9.4-27,14.6-54.9,17.9-83.1c2.7-23,7.9-44.9,21.5-64c20.1-28.2,47.2-45.6,81.7-49.7c43.7-5.2,79.5,10.2,107.8,43.8
					C414.2,164.4,414.7,165,415.3,165.5z"/>
				<path class="st3" d="M368.3,517.7c-6.3,15-12.6,30-19,44.9c-8.7,20.4-17.4,40.8-26.2,61.2c-0.5,1.1-1,2.1-1.5,3.2
					c-1.8-0.5-1.8-2-2.3-3.2c-15-34.9-30-69.9-45-104.8c-0.1-0.4-0.2-0.9-0.2-1.3c12.3-7.9,23.5-17.3,35.3-25.9
					c3.7-2.7,7.3-5.4,10.9-8.3c0.6-0.2,1.3-0.2,1.9,0C337.4,495,352.4,507,368.3,517.7z"/>
				<path class="st4" d="M320.2,484c-3.7,5.1-9.4,7.8-14.2,11.6c-9.2,7.3-18.9,14.1-28.3,21.1c-1.1,0.8-2.1,2.3-3.8,1l-26.6-61.6
					c-1.5-3.5-3.1-7-4.6-10.6l2.8-1.8l22.6-10.9c2.6-0.6,4.1,1.3,5.6,2.8c10,10.2,20.2,20.2,30.4,30.3c5,5,9.9,10.1,15.1,14.9
					C320,481.8,321,482.6,320.2,484z"/>
				<path class="st4" d="M368.3,517.7c-1.3,0.8-2.2,0-3.1-0.7l-42.3-31.5c-0.4-0.3-0.5-1-0.8-1.5c-0.8-1.5,0.4-2.2,1.2-3
					c15.5-14.6,30.3-29.9,45.5-44.9c1.5-1.5,2.6-3.8,5.4-3.3l22.6,10.9l2.5,1.9c-5.9,13.4-11.5,26.9-17.4,40.2
					C377.1,496.5,373,507.3,368.3,517.7z"/>
				<path class="st5" d="M412.7,328c-0.8,19.3-5.8,37.2-17.2,53c-6.2,8.5-13.7,15.9-22.2,22c-0.8,2.5-3,3.6-5,4.7
					c-31.4,17.1-62.9,17.1-94.4,0c-2.1-1.1-4.2-2.2-5-4.7c-21.1-15.4-34.1-35.8-38.1-61.7c-0.5-3.1-0.4-6.2-0.6-9.3
					c-2.5-13.9-0.7-27.8-1-41.7c-0.1-4.5-1.4-9-0.4-13.6c0.1-0.2,0.2-0.5,0.3-0.7c0.2-0.5,0.4-0.9,0.6-1.4
					c0.7-6.3,0.3-12.7,0.3-19.1c0-3.6,1.1-5.4,5-5.5c2.5-0.1,5.2,0.2,7.6-1.2c7-1.9,14-3.6,20.6-6.7c11.9-5.7,22.3-14.3,30.1-25
					c0.8-1.1,1.2-3.3,3.4-1c32.1,34.8,71.2,39.3,114.3,26.3l0.5,0.6c1.4,5.9,0.4,12,0.7,17.9c0.2,4.5-0.4,9.1,0.4,13.6
					c0.2,0.5,0.5,1,0.7,1.4c0.5,0.9,0.7,2,0.5,3c-1.2,15.3-0.6,30.6-0.4,45.9C413.7,326.1,413.4,327.2,412.7,328z"/>
				<path class="st6" d="M374.1,432.9c-2.6,1.1-4.1,3.4-5.9,5.2c-15.1,14.9-30.3,29.8-45.4,44.8c-0.3,0.3-0.5,0.7-0.7,1.1h-1.8
					c-7.9-7.9-15.8-15.8-23.6-23.7c-7.9-7.9-15.7-15.8-23.6-23.8c-1.5-1.5-2.9-3-4.9-3.6c-0.1-0.1-0.2-0.3-0.2-0.4
					c0.3-0.4,0.5-0.9,0.6-1.3c0.3-2.8,0.1-5.6,0.1-8.4c0.1-4.4,1-4.9,5.1-3.1c3.1,1.4,6.1,3,9.3,4.2c28.8,10.8,57.1,9.8,84.7-3.9
					c5.1-2.5,5.3-2.4,5.4,3.3c-0.1,3-0.1,5.9,0.2,8.9L374.1,432.9z"/>
				<path class="st7" d="M373.4,432.1c-1.4-3.3-0.4-6.7-0.6-10c-0.1-2.1,0.1-3.5-2.9-1.9c-17.7,9.8-36.9,13.3-56.9,12
					c-12.9-0.9-25.4-4.3-37-10c-2-1-3.9-1.9-6.1-3c-1.2,4.5,0.6,8.9-1.1,12.9c-0.9-7.6-1-15.4-0.1-23c0.1-2,0.1-4.1,0.2-6.1
					c29.9,21.6,74.5,21.6,104.4,0L373.4,432.1z"/>
				<path class="st8" d="M229.5,275.8c1.7,18.7,0.6,37.5,0.7,56.3c-0.1-3-1.6-4.2-4.6-4.9c-4.8-1.1-7.4-4.9-8.7-9.5
					c-0.3-0.5-0.4-1-0.4-1.5c0.3-7.1,0.1-14.2,0.1-21.3c0-2.8,0.1-5.6,0.5-8.3c1-6.6,5.5-9.4,11.4-10.8
					C228.9,275.5,229.3,275.5,229.5,275.8L229.5,275.8z"/>
				<path class="st6" d="M412.7,328c-1.6-8.5-0.6-17-0.8-25.5c-0.1-8.8-0.3-17.6,0.8-26.4l-0.2-0.6c0.3-0.2,0.8-0.2,1.1,0.1
					c5.9,1.4,10.4,4.3,11.4,10.8c1.1,9.9,0.1,19.7,0.6,29.6c0,0.5-0.1,1.1-0.4,1.5C423.5,324,419.3,327.4,412.7,328z"/>
				<path class="st9" d="M242.6,248.9c0.4,0.2,1.4,0.7,1,0.8c-2.4,0.6-5,1.3-7.4,1c-4.4-0.4-5.2,1.6-5,5.4c0.3,5.3,0.1,10.6,0.1,16
					c0,1.3,0.4,2.7-1,3.7c-1.8-5.6-0.5-11.4-0.7-17.1c-0.1-2.9-0.8-5.9,0.8-8.7L242.6,248.9z"/>
				<path class="st10" d="M412.8,276.1l-0.8-0.4c-1.1-9.1-0.1-18.3-0.5-27.4c-0.1-1.7,0.5-3.6-0.5-5.2c-0.1-0.1-0.1-0.4,0-0.5
					c2.7-1.2,1.3,1.4,1.9,2.1c0.5,10.3,0.5,20.7-0.1,31C412.9,275.8,412.9,276,412.8,276.1z"/>
				<path class="st11" d="M412.8,275.6l0.1-31c1.5,2.1,0.7,4.6,0.7,6.8c0.1,8.1,0,16.1,0,24.2l-0.4,0.1L412.8,275.6z"/>
				<path class="st12" d="M425.3,317.6l-0.3-1c-0.1-9.8-0.9-19.6,0.4-29.4c0.2,0,0.5,0,0.7,0.1c0.8,10.1,0.7,20.2-0.1,30.2
					C425.8,317.5,425.5,317.5,425.3,317.6z"/>
				<path class="st13" d="M217.2,286.4c1.5,2.8,0.8,5.8,0.7,8.7c-0.2,7.2,0.9,14.4-0.6,21.5c-0.7-0.6-1.1-1.4-1-2.3
					c-0.1-8.5-0.1-17,0.1-25.5c0.1-0.6,0.3-1.1,0.6-1.6C217,287,217.1,286.7,217.2,286.4z"/>
				<path class="st14" d="M425.4,287.2c-0.1,9.8-0.2,19.6-0.4,29.4c-1.5-6.8-0.5-13.8-0.6-20.6c-0.1-3.1-0.9-6.5,0.7-9.5
					C425.2,286.7,425.4,287,425.4,287.2z"/>
				<path class="st15" d="M216.3,317.5c-0.1-0.1-0.3-0.2-0.3-0.3c-1.1-10-1.4-20,0.2-29.9C217,297.4,216.7,307.4,216.3,317.5z"/>
				<path class="st16" d="M216.3,317.5l-0.1-30.2c0.2,0,0.5,0,0.7-0.1l0.4,29.4c-0.1,0.3-0.2,0.6-0.3,0.9
					C216.8,317.5,216.6,317.5,216.3,317.5z"/>
				<path class="st17" d="M426,317.5l0.1-30.2c1,0.7,0.9,1.8,0.9,2.8v24.3C427,315.5,427.2,316.8,426,317.5z"/>
				<path class="st18" d="M229.5,275.8c-0.3,0-0.6,0-0.9-0.1v-21.6c0-1.4-0.5-3,0.8-4.1c0.8,8.6,0.8,17.2,0,25.7L229.5,275.8z"/>
				<path class="st19" d="M229.5,275.7v-25.7h0.9c0,8.6,0,17.2-0.1,25.8h-0.4L229.5,275.7z"/>
				<path class="st20" d="M268.7,409.2c0,7.7,0.1,15.3,0.1,23l-0.9,0.4c0-6.9-0.1-13.7-0.1-20.6
					C267.8,410.9,267.7,409.9,268.7,409.2z"/>
				<path class="st21" d="M327.5,563.2c0,3.5-2.9,6.3-6.4,6.3s-6.3-2.9-6.3-6.4l0,0c0-3.5,2.9-6.3,6.4-6.3S327.5,559.7,327.5,563.2
					L327.5,563.2z"/>
				<path class="st21" d="M327.5,523.7c0.2,3.5-2.5,6.5-6,6.6c-3.5,0.2-6.5-2.5-6.6-6l0,0c-0.4-3.3,1.9-6.3,5.2-6.7
					c0.3,0,0.5-0.1,0.8,0C324.8,517.4,327.4,519.8,327.5,523.7z"/>
				<path class="st4" d="M369.2,340.7c3.2,1.1,1.7,3.3,1,5c-6.6,17.2-18.9,28.5-36.6,32.9c-25.1,6.2-50.9-6.9-60.7-30.8
					c-0.9-2.1-3.9-4.9,0.3-7.1c0.6-0.4,1.4-0.5,2.1-0.5c30.3,0.1,60.6,0,91,0.1C367.2,340.3,368.3,340,369.2,340.7z"/>
				<path class="st22" d="M281.6,301.8c-7.2-0.3-12.8-6.3-12.5-13.5s6.3-12.8,13.5-12.5c7.2,0.3,12.8,6.3,12.5,13.5l0,0
					C294.8,296.5,288.8,302,281.6,301.8z"/>
				<path class="st22" d="M360.3,301.8c-7.3,0-13.2-5.9-13.2-13.2s5.9-13.2,13.2-13.2c7.1,0,13,5.7,13.2,12.8c0,0.2,0,0.5,0,0.7
					C373.3,296.1,367.4,301.9,360.3,301.8z"/>
				<path class="st23" d="M369.2,340.7h-96.1c0.4-0.7,0.7-1.3,1.6-1.3c30.2,0.9,60.5,0.1,90.8,0.4
					C366.8,339.8,368.2,339.4,369.2,340.7z"/>
				<path class="st24" d="M411,243.1c1.7,1,0.9,2.6,0.9,4c0.1,9.6,0.1,19.1,0.1,28.7c-1.5-1.3-0.9-3-0.9-4.5
					C411,261.8,411,252.4,411,243.1z"/>
			</g>
		</g>
	</g>
</g>
</svg>
