<?xml version="1.0" encoding="utf-8"?>
<!-- Generator: Adobe Illustrator 25.4.1, SVG Export Plug-In . SVG Version: 6.00 Build 0)  -->
<svg version="1.1" id="Capa_1" xmlns="http://www.w3.org/2000/svg" xmlns:xlink="http://www.w3.org/1999/xlink" x="0px" y="0px"
	 viewBox="0 0 642.3 642.3" style="enable-background:new 0 0 642.3 642.3;" xml:space="preserve">
<style type="text/css">
	.st0{fill:none;}
	.st1{fill:#33CCCC;}
	.st2{fill:#13123E;}
	.st3{fill:none;stroke:#13123E;stroke-width:14.32;stroke-miterlimit:10;}
	.st4{fill:none;stroke:#00FF99;stroke-width:20;stroke-miterlimit:10;}
</style>
<g id="Capa_2_00000180324950820300134350000010615128588354644359_">
	<g id="Capa_3">
		<circle class="st0" cx="321.2" cy="321.2" r="320.7"/>
	</g>
	<g id="Capa_1-2">
		<polygon class="st1" points="207.1,293.2 504.8,269.6 504.8,352.5 223.3,375.4 		"/>
		<path class="st2" d="M304.9,529.1c0,21.4-17.3,38.7-38.7,38.7c-21.4,0-38.7-17.3-38.7-38.7c0-21.4,17.3-38.7,38.7-38.7
			C287.5,490.4,304.9,507.8,304.9,529.1C304.9,529.1,304.9,529.1,304.9,529.1z"/>
		<path class="st2" d="M458.9,529.1c0,21.4-17.3,38.7-38.7,38.7s-38.7-17.3-38.7-38.7c0-21.4,17.3-38.7,38.7-38.7
			C441.6,490.4,458.9,507.7,458.9,529.1C458.9,529.1,458.9,529.1,458.9,529.1z"/>
		<polyline class="st3" points="90,141 169.4,141 227.4,406.4 200.4,445.4 500,445.4 		"/>
		<polygon class="st2" points="504.8,352.5 223.3,375.4 181.6,163.9 504.8,163.9 		"/>
		<line class="st4" x1="250.4" y1="202" x2="438.3" y2="202"/>
	</g>
</g>
</svg>
