<?xml version="1.0" encoding="utf-8"?>
<!-- Generator: Adobe Illustrator 25.4.1, SVG Export Plug-In . SVG Version: 6.00 Build 0)  -->
<svg version="1.1" id="Capa_1" xmlns="http://www.w3.org/2000/svg" xmlns:xlink="http://www.w3.org/1999/xlink" x="0px" y="0px"
	 viewBox="0 0 642.3 641.8" style="enable-background:new 0 0 642.3 641.8;" xml:space="preserve">
<style type="text/css">
	.st0{fill:none;}
	.st1{clip-path:url(#SVGID_00000152262605960746692540000017879947880275064472_);}
	.st2{fill:#13123E;}
	.st3{fill:none;stroke:#00FF99;stroke-width:20;stroke-miterlimit:10;}
</style>
<g id="Capa_2_00000085231449575800253030000003919654183794459542_">
	<g id="Capa_3">
		<circle class="st0" cx="321.2" cy="321.2" r="320.7"/>
	</g>
	<g id="Capa_1-2">
		<g>
			<defs>
				<polyline id="SVGID_1_" points="642.3,0.5 642.3,641.8 1,641.8 1,0.5 				"/>
			</defs>
			<clipPath id="SVGID_00000160909261544090159360000014580317657874797471_">
				<use xlink:href="#SVGID_1_"  style="overflow:visible;"/>
			</clipPath>
			<g style="clip-path:url(#SVGID_00000160909261544090159360000014580317657874797471_);">
				<path class="st2" d="M374.8,303.5H266.3c-30.8,0-60.2,12.9-81.1,35.5l-82.7,89.8c-25.8,28.1-23.9,71.8,4.2,97.6
					c12.7,11.6,29.3,18.1,46.5,18.2c1.1,0,2.3,0,3.5-0.1c9-0.4,17.9-2.5,26.1-6.3l-0.1,167.6c0,43.7,35.4,79.2,79.2,79.2
					c22.6,0,44.2-9.7,59.2-26.6c15,17,36.6,26.7,59.2,26.7c43.5,0,78.6-34.3,79.8-78.1c0-0.5,0-0.9,0-1.4l-1.1-167.1
					c8,3.6,16.7,5.7,25.5,6c1.2,0.1,2.3,0.1,3.5,0.1c38.2-0.2,69-31.2,68.8-69.4c-0.1-17.1-6.5-33.6-18-46.2l-82.8-90
					C435,316.4,405.6,303.5,374.8,303.5L374.8,303.5z"/>
				<path class="st2" d="M320.5,86.5c-55.2,0-100,44.7-100.1,99.9c0,0.1,0,0.1,0,0.2c0,55.3,44.9,100.1,100.2,100.1
					c26.5,0,51.9-10.5,70.7-29.3c39.1-39.1,39.1-102.5,0-141.6C372.7,96.9,347.1,86.3,320.5,86.5L320.5,86.5z"/>
			</g>
		</g>
		<path class="st3" d="M384.7,155c-19.1-19.1-45-29.8-72-29.8"/>
	</g>
</g>
</svg>
